<?xml version="1.0" encoding="UTF-8" standalone="no"?>
<!DOCTYPE svg PUBLIC "-//W3C//DTD SVG 1.1//EN"
 "http://www.w3.org/Graphics/SVG/1.1/DTD/svg11.dtd">
<!-- Generated by graphviz version 2.36.0 (20140111.2315)
 -->
<!-- Title: controllers_diagram Pages: 1 -->
<svg width="712pt" height="695pt"
 viewBox="0.00 0.00 712.00 695.00" xmlns="http://www.w3.org/2000/svg" xmlns:xlink="http://www.w3.org/1999/xlink">
<g id="graph0" class="graph" transform="scale(1 1) rotate(0) translate(4 691)">
<title>controllers_diagram</title>
<polygon fill="none" stroke="none" points="-4,4 -4,-691 708,-691 708,4 -4,4"/>
<!-- _diagram_info -->
<g id="node1" class="node"><title>_diagram_info</title>
<text text-anchor="start" x="122" y="-481.6" font-family="Times,serif" font-size="13.00">Controllers diagram</text>
<text text-anchor="start" x="122" y="-467.6" font-family="Times,serif" font-size="13.00">Date: Jul 08 2016 &#45; 00:20</text>
<text text-anchor="start" x="122" y="-453.6" font-family="Times,serif" font-size="13.00">Migration version: 20160707160108</text>
<text text-anchor="start" x="122" y="-439.6" font-family="Times,serif" font-size="13.00">Generated by RailRoady 1.5.1</text>
<text text-anchor="start" x="122" y="-425.6" font-family="Times,serif" font-size="13.00">http://railroady.prestonlee.com</text>
</g>
<!-- DashboardController -->
<g id="node2" class="node"><title>DashboardController</title>
<path fill="none" stroke="black" d="M88,-532.5C88,-532.5 231,-532.5 231,-532.5 237,-532.5 243,-538.5 243,-544.5 243,-544.5 243,-628.5 243,-628.5 243,-634.5 237,-640.5 231,-640.5 231,-640.5 88,-640.5 88,-640.5 82,-640.5 76,-634.5 76,-628.5 76,-628.5 76,-544.5 76,-544.5 76,-538.5 82,-532.5 88,-532.5"/>
<text text-anchor="middle" x="159.5" y="-625.3" font-family="Times,serif" font-size="14.00">DashboardController</text>
<polyline fill="none" stroke="black" points="76,-617.5 243,-617.5 "/>
<text text-anchor="start" x="84" y="-602.3" font-family="Times,serif" font-size="14.00">dashboard</text>
<text text-anchor="start" x="84" y="-587.3" font-family="Times,serif" font-size="14.00">send_message</text>
<polyline fill="none" stroke="black" points="76,-579.5 243,-579.5 "/>
<polyline fill="none" stroke="black" points="76,-555.5 243,-555.5 "/>
<text text-anchor="start" x="84" y="-540.3" font-family="Times,serif" font-size="14.00">_layout</text>
</g>
<!-- ApplicationController -->
<g id="node3" class="node"><title>ApplicationController</title>
<path fill="none" stroke="black" d="M544,-532.5C544,-532.5 692,-532.5 692,-532.5 698,-532.5 704,-538.5 704,-544.5 704,-544.5 704,-674.5 704,-674.5 704,-680.5 698,-686.5 692,-686.5 692,-686.5 544,-686.5 544,-686.5 538,-686.5 532,-680.5 532,-674.5 532,-674.5 532,-544.5 532,-544.5 532,-538.5 538,-532.5 544,-532.5"/>
<text text-anchor="middle" x="618" y="-671.3" font-family="Times,serif" font-size="14.00">ApplicationController</text>
<polyline fill="none" stroke="black" points="532,-663.5 704,-663.5 "/>
<polyline fill="none" stroke="black" points="532,-639.5 704,-639.5 "/>
<polyline fill="none" stroke="black" points="532,-615.5 704,-615.5 "/>
<text text-anchor="start" x="540" y="-600.3" font-family="Times,serif" font-size="14.00">_layout</text>
<text text-anchor="start" x="540" y="-585.3" font-family="Times,serif" font-size="14.00">authenticate_user!</text>
<text text-anchor="start" x="540" y="-570.3" font-family="Times,serif" font-size="14.00">correct_user?</text>
<text text-anchor="start" x="540" y="-555.3" font-family="Times,serif" font-size="14.00">current_user</text>
<text text-anchor="start" x="540" y="-540.3" font-family="Times,serif" font-size="14.00">user_signed_in?</text>
</g>
<!-- MessengerController -->
<g id="node4" class="node"><title>MessengerController</title>
<path fill="none" stroke="black" d="M411,-133.5C411,-133.5 557,-133.5 557,-133.5 563,-133.5 569,-139.5 569,-145.5 569,-145.5 569,-334.5 569,-334.5 569,-340.5 563,-346.5 557,-346.5 557,-346.5 411,-346.5 411,-346.5 405,-346.5 399,-340.5 399,-334.5 399,-334.5 399,-145.5 399,-145.5 399,-139.5 405,-133.5 411,-133.5"/>
<text text-anchor="middle" x="484" y="-331.3" font-family="Times,serif" font-size="14.00">MessengerController</text>
<polyline fill="none" stroke="black" points="399,-323.5 569,-323.5 "/>
<text text-anchor="start" x="407" y="-308.3" font-family="Times,serif" font-size="14.00">callback</text>
<text text-anchor="start" x="407" y="-293.3" font-family="Times,serif" font-size="14.00">verify_callback</text>
<polyline fill="none" stroke="black" points="399,-285.5 569,-285.5 "/>
<polyline fill="none" stroke="black" points="399,-261.5 569,-261.5 "/>
<text text-anchor="start" x="407" y="-246.3" font-family="Times,serif" font-size="14.00">_layout</text>
<text text-anchor="start" x="407" y="-231.3" font-family="Times,serif" font-size="14.00">get_resource</text>
<text text-anchor="start" x="407" y="-216.3" font-family="Times,serif" font-size="14.00">page_params</text>
<text text-anchor="start" x="407" y="-201.3" font-family="Times,serif" font-size="14.00">query_params</text>
<text text-anchor="start" x="407" y="-186.3" font-family="Times,serif" font-size="14.00">resource_class</text>
<text text-anchor="start" x="407" y="-171.3" font-family="Times,serif" font-size="14.00">resource_name</text>
<text text-anchor="start" x="407" y="-156.3" font-family="Times,serif" font-size="14.00">resource_params</text>
<text text-anchor="start" x="407" y="-141.3" font-family="Times,serif" font-size="14.00">set_resource</text>
</g>
<!-- Messenger::BaseController -->
<g id="node5" class="node"><title>Messenger::BaseController</title>
<path fill="none" stroke="black" d="M164,-152.5C164,-152.5 353,-152.5 353,-152.5 359,-152.5 365,-158.5 365,-164.5 365,-164.5 365,-353.5 365,-353.5 365,-359.5 359,-365.5 353,-365.5 353,-365.5 164,-365.5 164,-365.5 158,-365.5 152,-359.5 152,-353.5 152,-353.5 152,-164.5 152,-164.5 152,-158.5 158,-152.5 164,-152.5"/>
<text text-anchor="middle" x="258.5" y="-350.3" font-family="Times,serif" font-size="14.00">Messenger::BaseController</text>
<polyline fill="none" stroke="black" points="152,-342.5 365,-342.5 "/>
<text text-anchor="start" x="160" y="-327.3" font-family="Times,serif" font-size="14.00">callback</text>
<text text-anchor="start" x="160" y="-312.3" font-family="Times,serif" font-size="14.00">varify_callback</text>
<polyline fill="none" stroke="black" points="152,-304.5 365,-304.5 "/>
<polyline fill="none" stroke="black" points="152,-280.5 365,-280.5 "/>
<text text-anchor="start" x="160" y="-265.3" font-family="Times,serif" font-size="14.00">_layout</text>
<text text-anchor="start" x="160" y="-250.3" font-family="Times,serif" font-size="14.00">get_resource</text>
<text text-anchor="start" x="160" y="-235.3" font-family="Times,serif" font-size="14.00">page_params</text>
<text text-anchor="start" x="160" y="-220.3" font-family="Times,serif" font-size="14.00">query_params</text>
<text text-anchor="start" x="160" y="-205.3" font-family="Times,serif" font-size="14.00">resource_class</text>
<text text-anchor="start" x="160" y="-190.3" font-family="Times,serif" font-size="14.00">resource_name</text>
<text text-anchor="start" x="160" y="-175.3" font-family="Times,serif" font-size="14.00">resource_params</text>
<text text-anchor="start" x="160" y="-160.3" font-family="Times,serif" font-size="14.00">set_resource</text>
</g>
<!-- Messenger::PublisherController -->
<g id="node6" class="node"><title>Messenger::PublisherController</title>
<path fill="none" stroke="black" d="M411,-380.5C411,-380.5 634,-380.5 634,-380.5 640,-380.5 646,-386.5 646,-392.5 646,-392.5 646,-492.5 646,-492.5 646,-498.5 640,-504.5 634,-504.5 634,-504.5 411,-504.5 411,-504.5 405,-504.5 399,-498.5 399,-492.5 399,-492.5 399,-392.5 399,-392.5 399,-386.5 405,-380.5 411,-380.5"/>
<text text-anchor="middle" x="522.5" y="-489.3" font-family="Times,serif" font-size="14.00">Messenger::PublisherController</text>
<polyline fill="none" stroke="black" points="399,-481.5 646,-481.5 "/>
<polyline fill="none" stroke="black" points="399,-457.5 646,-457.5 "/>
<polyline fill="none" stroke="black" points="399,-433.5 646,-433.5 "/>
<text text-anchor="start" x="407" y="-418.3" font-family="Times,serif" font-size="14.00">_layout</text>
<text text-anchor="start" x="407" y="-403.3" font-family="Times,serif" font-size="14.00">publisher_params</text>
<text text-anchor="start" x="407" y="-388.3" font-family="Times,serif" font-size="14.00">query_params</text>
</g>
<!-- SettingController -->
<g id="node7" class="node"><title>SettingController</title>
<path fill="none" stroke="black" d="M297,-532.5C297,-532.5 479,-532.5 479,-532.5 485,-532.5 491,-538.5 491,-544.5 491,-544.5 491,-628.5 491,-628.5 491,-634.5 485,-640.5 479,-640.5 479,-640.5 297,-640.5 297,-640.5 291,-640.5 285,-634.5 285,-628.5 285,-628.5 285,-544.5 285,-544.5 285,-538.5 291,-532.5 297,-532.5"/>
<text text-anchor="middle" x="388" y="-625.3" font-family="Times,serif" font-size="14.00">SettingController</text>
<polyline fill="none" stroke="black" points="285,-617.5 491,-617.5 "/>
<text text-anchor="start" x="293" y="-602.3" font-family="Times,serif" font-size="14.00">page_setting</text>
<text text-anchor="start" x="293" y="-587.3" font-family="Times,serif" font-size="14.00">update_welcome_message</text>
<polyline fill="none" stroke="black" points="285,-579.5 491,-579.5 "/>
<polyline fill="none" stroke="black" points="285,-555.5 491,-555.5 "/>
<text text-anchor="start" x="293" y="-540.3" font-family="Times,serif" font-size="14.00">_layout</text>
</g>
<!-- PagesController -->
<g id="node8" class="node"><title>PagesController</title>
<path fill="none" stroke="black" d="M202,-19.5C202,-19.5 310,-19.5 310,-19.5 316,-19.5 322,-25.5 322,-31.5 322,-31.5 322,-100.5 322,-100.5 322,-106.5 316,-112.5 310,-112.5 310,-112.5 202,-112.5 202,-112.5 196,-112.5 190,-106.5 190,-100.5 190,-100.5 190,-31.5 190,-31.5 190,-25.5 196,-19.5 202,-19.5"/>
<text text-anchor="middle" x="256" y="-97.3" font-family="Times,serif" font-size="14.00">PagesController</text>
<polyline fill="none" stroke="black" points="190,-89.5 322,-89.5 "/>
<text text-anchor="start" x="198" y="-74.3" font-family="Times,serif" font-size="14.00">index</text>
<polyline fill="none" stroke="black" points="190,-66.5 322,-66.5 "/>
<polyline fill="none" stroke="black" points="190,-42.5 322,-42.5 "/>
<text text-anchor="start" x="198" y="-27.3" font-family="Times,serif" font-size="14.00">_layout</text>
</g>
<!-- SessionsController -->
<g id="node9" class="node"><title>SessionsController</title>
<path fill="none" stroke="black" d="M12,-0.5C12,-0.5 140,-0.5 140,-0.5 146,-0.5 152,-6.5 152,-12.5 152,-12.5 152,-110.5 152,-110.5 152,-116.5 146,-122.5 140,-122.5 140,-122.5 12,-122.5 12,-122.5 6,-122.5 0,-116.5 0,-110.5 0,-110.5 0,-12.5 0,-12.5 0,-6.5 6,-0.5 12,-0.5"/>
<text text-anchor="middle" x="76" y="-107.3" font-family="Times,serif" font-size="14.00">SessionsController</text>
<polyline fill="none" stroke="black" points="0,-99.5 152,-99.5 "/>
<text text-anchor="start" x="8" y="-84.3" font-family="Times,serif" font-size="14.00">create</text>
<text text-anchor="start" x="8" y="-69.3" font-family="Times,serif" font-size="14.00">destroy</text>
<text text-anchor="start" x="8" y="-54.3" font-family="Times,serif" font-size="14.00">new</text>
<polyline fill="none" stroke="black" points="0,-46.5 152,-46.5 "/>
<text text-anchor="start" x="8" y="-31.3" font-family="Times,serif" font-size="14.00">auth</text>
<polyline fill="none" stroke="black" points="0,-23.5 152,-23.5 "/>
<text text-anchor="start" x="8" y="-8.3" font-family="Times,serif" font-size="14.00">_layout</text>
</g>
</g>
</svg>
