<?xml version="1.0" encoding="UTF-8" standalone="no"?>
<!DOCTYPE svg PUBLIC "-//W3C//DTD SVG 1.1//EN"
 "http://www.w3.org/Graphics/SVG/1.1/DTD/svg11.dtd">
<!-- Generated by graphviz version 2.36.0 (20140111.2315)
 -->
<!-- Title: models_diagram Pages: 1 -->
<svg width="661pt" height="302pt"
 viewBox="0.00 0.00 661.00 302.00" xmlns="http://www.w3.org/2000/svg" xmlns:xlink="http://www.w3.org/1999/xlink">
<g id="graph0" class="graph" transform="scale(1 1) rotate(0) translate(4 298)">
<title>models_diagram</title>
<polygon fill="none" stroke="none" points="-4,4 -4,-298 657,-298 657,4 -4,4"/>
<!-- _diagram_info -->
<g id="node1" class="node"><title>_diagram_info</title>
<text text-anchor="start" x="8.5" y="-279.6" font-family="Times,serif" font-size="13.00">Models diagram</text>
<text text-anchor="start" x="8.5" y="-265.6" font-family="Times,serif" font-size="13.00">Date: Jul 08 2016 &#45; 00:20</text>
<text text-anchor="start" x="8.5" y="-251.6" font-family="Times,serif" font-size="13.00">Migration version: 20160707160108</text>
<text text-anchor="start" x="8.5" y="-237.6" font-family="Times,serif" font-size="13.00">Generated by RailRoady 1.5.1</text>
<text text-anchor="start" x="8.5" y="-223.6" font-family="Times,serif" font-size="13.00">http://railroady.prestonlee.com</text>
</g>
<!-- AdminUser -->
<g id="node2" class="node"><title>AdminUser</title>
<ellipse fill="none" stroke="black" cx="339" cy="-255" rx="63.0666" ry="18"/>
<text text-anchor="middle" x="339" y="-251.3" font-family="Times,serif" font-size="14.00">AdminUser</text>
</g>
<!-- Comment -->
<g id="node3" class="node"><title>Comment</title>
<ellipse fill="none" stroke="black" cx="176" cy="-18" rx="55.3436" ry="18"/>
<text text-anchor="middle" x="176" y="-14.3" font-family="Times,serif" font-size="14.00">Comment</text>
</g>
<!-- User -->
<g id="node4" class="node"><title>User</title>
<ellipse fill="none" stroke="black" cx="259" cy="-162" rx="32.2457" ry="18"/>
<text text-anchor="middle" x="259" y="-158.3" font-family="Times,serif" font-size="14.00">User</text>
</g>
<!-- User&#45;&gt;Comment -->
<g id="edge3" class="edge"><title>User&#45;&gt;Comment</title>
<path fill="none" stroke="#2c3f49" d="M219.432,-152.07C196.019,-144.531 168.234,-131.129 154,-108 142.154,-88.7505 150.22,-63.4707 159.752,-44.7742"/>
<polygon fill="#2c3f49" stroke="#2c3f49" points="219.56,-152.108 227.866,-159.267 224.354,-153.531 229.147,-154.953 229.147,-154.953 229.147,-154.953 224.354,-153.531 230.427,-150.639 219.56,-152.108 219.56,-152.108"/>
<polygon fill="#2c3f49" stroke="#2c3f49" points="159.801,-44.6848 168.563,-38.0909 162.211,-40.3036 164.62,-35.9224 164.62,-35.9224 164.62,-35.9224 162.211,-40.3036 160.677,-33.7539 159.801,-44.6848 159.801,-44.6848"/>
</g>
<!-- Role -->
<g id="node7" class="node"><title>Role</title>
<ellipse fill="none" stroke="black" cx="360" cy="-90" rx="31.2965" ry="18"/>
<text text-anchor="middle" x="360" y="-86.3" font-family="Times,serif" font-size="14.00">Role</text>
</g>
<!-- User&#45;&gt;Role -->
<g id="edge4" class="edge"><title>User&#45;&gt;Role</title>
<path fill="none" stroke="#4d9e97" d="M287,-141.594C301.222,-131.737 318.436,-119.806 332.576,-110.007"/>
<polygon fill="#4d9e97" stroke="#4d9e97" points="286.693,-141.807 275.91,-143.805 282.583,-144.655 278.474,-147.503 278.474,-147.503 278.474,-147.503 282.583,-144.655 281.037,-151.202 286.693,-141.807 286.693,-141.807"/>
<polygon fill="#4d9e97" stroke="#4d9e97" points="332.709,-109.914 343.492,-107.916 336.819,-107.066 340.928,-104.218 340.928,-104.218 340.928,-104.218 336.819,-107.066 338.365,-100.519 332.709,-109.914 332.709,-109.914"/>
</g>
<!-- Summary -->
<g id="node8" class="node"><title>Summary</title>
<ellipse fill="none" stroke="black" cx="218" cy="-90" rx="55.3682" ry="18"/>
<text text-anchor="middle" x="218" y="-86.3" font-family="Times,serif" font-size="14.00">Summary</text>
</g>
<!-- User&#45;&gt;Summary -->
<g id="edge2" class="edge"><title>User&#45;&gt;Summary</title>
<path fill="none" stroke="#0c9461" d="M244.343,-135.975C240.71,-129.772 236.809,-123.113 233.153,-116.87"/>
<polygon fill="#0c9461" stroke="#0c9461" points="244.437,-136.136 245.608,-147.039 246.964,-140.45 249.491,-144.765 249.491,-144.765 249.491,-144.765 246.964,-140.45 253.374,-142.49 244.437,-136.136 244.437,-136.136"/>
<polygon fill="#0c9461" stroke="#0c9461" points="233.084,-116.753 231.913,-105.85 230.557,-112.438 228.03,-108.124 228.03,-108.124 228.03,-108.124 230.557,-112.438 224.147,-110.398 233.084,-116.753 233.084,-116.753"/>
</g>
<!-- Story -->
<g id="node11" class="node"><title>Story</title>
<ellipse fill="none" stroke="black" cx="445" cy="-18" rx="35.6194" ry="18"/>
<text text-anchor="middle" x="445" y="-14.3" font-family="Times,serif" font-size="14.00">Story</text>
</g>
<!-- User&#45;&gt;Story -->
<g id="edge1" class="edge"><title>User&#45;&gt;Story</title>
<path fill="none" stroke="#9a678a" d="M270.371,-137.301C280.874,-117.558 298.141,-89.8756 320,-72 344.674,-51.822 378.159,-38.1729 404.262,-29.7854"/>
<ellipse fill="none" stroke="#9a678a" cx="268.517" cy="-140.888" rx="4.00002" ry="4.00002"/>
<polygon fill="#9a678a" stroke="#9a678a" points="404.314,-29.7695 415.195,-31.1264 409.092,-28.2976 413.871,-26.8258 413.871,-26.8258 413.871,-26.8258 409.092,-28.2976 412.546,-22.5252 404.314,-29.7695 404.314,-29.7695"/>
</g>
<!-- RssFeed -->
<g id="node5" class="node"><title>RssFeed</title>
<ellipse fill="none" stroke="black" cx="459" cy="-90" rx="50.0684" ry="18"/>
<text text-anchor="middle" x="459" y="-86.3" font-family="Times,serif" font-size="14.00">RssFeed</text>
</g>
<!-- Brand -->
<g id="node6" class="node"><title>Brand</title>
<ellipse fill="none" stroke="black" cx="459" cy="-255" rx="38.4949" ry="18"/>
<text text-anchor="middle" x="459" y="-251.3" font-family="Times,serif" font-size="14.00">Brand</text>
</g>
<!-- Page -->
<g id="node9" class="node"><title>Page</title>
<ellipse fill="none" stroke="black" cx="459" cy="-162" rx="33.2209" ry="18"/>
<text text-anchor="middle" x="459" y="-158.3" font-family="Times,serif" font-size="14.00">Page</text>
</g>
<!-- Brand&#45;&gt;Page -->
<g id="edge5" class="edge"><title>Brand&#45;&gt;Page</title>
<path fill="none" stroke="#4c3c0c" d="M459,-228.729C459,-216.725 459,-202.362 459,-190.129"/>
<ellipse fill="none" stroke="#4c3c0c" cx="459" cy="-232.884" rx="4" ry="4"/>
<polygon fill="#4c3c0c" stroke="#4c3c0c" points="459,-190.04 463.5,-180.04 459,-185.04 459,-180.04 459,-180.04 459,-180.04 459,-185.04 454.5,-180.04 459,-190.04 459,-190.04"/>
</g>
<!-- Summary&#45;&gt;Comment -->
<g id="edge6" class="edge"><title>Summary&#45;&gt;Comment</title>
<path fill="none" stroke="#de9268" d="M203.599,-64.9976C199.632,-58.3871 195.316,-51.1939 191.301,-44.502"/>
<ellipse fill="none" stroke="#de9268" cx="205.775" cy="-68.625" rx="4.00002" ry="4.00002"/>
<polygon fill="#de9268" stroke="#de9268" points="191.218,-44.3639 189.932,-33.4737 188.646,-40.0765 186.073,-35.789 186.073,-35.789 186.073,-35.789 188.646,-40.0765 182.215,-38.1043 191.218,-44.3639 191.218,-44.3639"/>
</g>
<!-- Page&#45;&gt;RssFeed -->
<g id="edge8" class="edge"><title>Page&#45;&gt;RssFeed</title>
<path fill="none" stroke="#307f64" d="M459,-135.64C459,-130.063 459,-124.132 459,-118.476"/>
<ellipse fill="none" stroke="#307f64" cx="459" cy="-139.697" rx="4" ry="4"/>
<polygon fill="#307f64" stroke="#307f64" points="459,-118.104 463.5,-108.104 459,-113.104 459,-108.104 459,-108.104 459,-108.104 459,-113.104 454.5,-108.104 459,-118.104 459,-118.104"/>
</g>
<!-- Page&#45;&gt;Role -->
<g id="edge9" class="edge"><title>Page&#45;&gt;Role</title>
<path fill="none" stroke="#180327" d="M432.501,-142.264C418.485,-132.353 401.304,-120.205 387.186,-110.222"/>
<ellipse fill="none" stroke="#180327" cx="436.175" cy="-144.861" rx="4.00002" ry="4.00002"/>
<polygon fill="#180327" stroke="#180327" points="387.012,-110.099 381.445,-100.652 382.929,-107.213 378.847,-104.326 378.847,-104.326 378.847,-104.326 382.929,-107.213 376.249,-108 387.012,-110.099 387.012,-110.099"/>
</g>
<!-- Newsletter -->
<g id="node10" class="node"><title>Newsletter</title>
<ellipse fill="none" stroke="black" cx="590" cy="-90" rx="63.0666" ry="18"/>
<text text-anchor="middle" x="590" y="-86.3" font-family="Times,serif" font-size="14.00">Newsletter</text>
</g>
<!-- Page&#45;&gt;Newsletter -->
<g id="edge7" class="edge"><title>Page&#45;&gt;Newsletter</title>
<path fill="none" stroke="#b0d7e5" d="M488.898,-145.024C507.798,-134.925 532.38,-121.789 552.572,-111"/>
<ellipse fill="none" stroke="#b0d7e5" cx="485.346" cy="-146.922" rx="4.00002" ry="4.00002"/>
<polygon fill="#b0d7e5" stroke="#b0d7e5" points="552.684,-110.94 563.625,-110.196 557.094,-108.583 561.504,-106.227 561.504,-106.227 561.504,-106.227 557.094,-108.583 559.383,-102.258 552.684,-110.94 552.684,-110.94"/>
</g>
<!-- Newsletter&#45;&gt;Story -->
<g id="edge10" class="edge"><title>Newsletter&#45;&gt;Story</title>
<path fill="none" stroke="#7cf991" d="M551.821,-70.569C529.267,-59.6808 500.952,-46.0115 479.142,-35.4823"/>
<ellipse fill="none" stroke="#7cf991" cx="555.647" cy="-72.4158" rx="4.00002" ry="4.00002"/>
<polygon fill="#7cf991" stroke="#7cf991" points="478.932,-35.381 471.883,-26.9809 474.429,-33.2072 469.926,-31.0334 469.926,-31.0334 469.926,-31.0334 474.429,-33.2072 467.97,-35.0859 478.932,-35.381 478.932,-35.381"/>
</g>
</g>
</svg>
