<?xml version="1.0" encoding="UTF-8" standalone="no"?>
<!DOCTYPE svg PUBLIC "-//W3C//DTD SVG 1.1//EN"
 "http://www.w3.org/Graphics/SVG/1.1/DTD/svg11.dtd">
<!-- Generated by graphviz version 2.36.0 (20140111.2315)
 -->
<!-- Title: models_diagram Pages: 1 -->
<svg width="1485pt" height="980pt"
 viewBox="0.00 0.00 1485.00 980.00" xmlns="http://www.w3.org/2000/svg" xmlns:xlink="http://www.w3.org/1999/xlink">
<g id="graph0" class="graph" transform="scale(1 1) rotate(0) translate(4 976)">
<title>models_diagram</title>
<polygon fill="none" stroke="none" points="-4,4 -4,-976 1481,-976 1481,4 -4,4"/>
<!-- _diagram_info -->
<g id="node1" class="node"><title>_diagram_info</title>
<text text-anchor="start" x="105.5" y="-882.6" font-family="Times,serif" font-size="13.00">Models diagram</text>
<text text-anchor="start" x="105.5" y="-868.6" font-family="Times,serif" font-size="13.00">Date: Jul 08 2016 &#45; 00:20</text>
<text text-anchor="start" x="105.5" y="-854.6" font-family="Times,serif" font-size="13.00">Migration version: 20160707160108</text>
<text text-anchor="start" x="105.5" y="-840.6" font-family="Times,serif" font-size="13.00">Generated by RailRoady 1.5.1</text>
<text text-anchor="start" x="105.5" y="-826.6" font-family="Times,serif" font-size="13.00">http://railroady.prestonlee.com</text>
</g>
<!-- AdminUser -->
<g id="node2" class="node"><title>AdminUser</title>
<path fill="none" stroke="black" d="M385,-745C385,-745 769,-745 769,-745 775,-745 781,-751 781,-757 781,-757 781,-959 781,-959 781,-965 775,-971 769,-971 769,-971 385,-971 385,-971 379,-971 373,-965 373,-959 373,-959 373,-757 373,-757 373,-751 379,-745 385,-745"/>
<text text-anchor="middle" x="577" y="-955.8" font-family="Times,serif" font-size="14.00">AdminUser</text>
<polyline fill="none" stroke="black" points="373,-948 781,-948 "/>
<text text-anchor="start" x="381" y="-932.8" font-family="Times,serif" font-size="14.00">id :integer</text>
<text text-anchor="start" x="381" y="-917.8" font-family="Times,serif" font-size="14.00">email :character varying</text>
<text text-anchor="start" x="381" y="-902.8" font-family="Times,serif" font-size="14.00">encrypted_password :character varying</text>
<text text-anchor="start" x="381" y="-887.8" font-family="Times,serif" font-size="14.00">reset_password_token :character varying</text>
<text text-anchor="start" x="381" y="-872.8" font-family="Times,serif" font-size="14.00">reset_password_sent_at :timestamp without time zone</text>
<text text-anchor="start" x="381" y="-857.8" font-family="Times,serif" font-size="14.00">remember_created_at :timestamp without time zone</text>
<text text-anchor="start" x="381" y="-842.8" font-family="Times,serif" font-size="14.00">sign_in_count :integer</text>
<text text-anchor="start" x="381" y="-827.8" font-family="Times,serif" font-size="14.00">current_sign_in_at :timestamp without time zone</text>
<text text-anchor="start" x="381" y="-812.8" font-family="Times,serif" font-size="14.00">last_sign_in_at :timestamp without time zone</text>
<text text-anchor="start" x="381" y="-797.8" font-family="Times,serif" font-size="14.00">current_sign_in_ip :inet</text>
<text text-anchor="start" x="381" y="-782.8" font-family="Times,serif" font-size="14.00">last_sign_in_ip :inet</text>
<text text-anchor="start" x="381" y="-767.8" font-family="Times,serif" font-size="14.00">created_at :timestamp without time zone</text>
<text text-anchor="start" x="381" y="-752.8" font-family="Times,serif" font-size="14.00">updated_at :timestamp without time zone</text>
</g>
<!-- Comment -->
<g id="node3" class="node"><title>Comment</title>
<path fill="none" stroke="black" d="M12,-0.5C12,-0.5 304,-0.5 304,-0.5 310,-0.5 316,-6.5 316,-12.5 316,-12.5 316,-109.5 316,-109.5 316,-115.5 310,-121.5 304,-121.5 304,-121.5 12,-121.5 12,-121.5 6,-121.5 0,-115.5 0,-109.5 0,-109.5 0,-12.5 0,-12.5 0,-6.5 6,-0.5 12,-0.5"/>
<text text-anchor="middle" x="158" y="-106.3" font-family="Times,serif" font-size="14.00">Comment</text>
<polyline fill="none" stroke="black" points="0,-98.5 316,-98.5 "/>
<text text-anchor="start" x="8" y="-83.3" font-family="Times,serif" font-size="14.00">id :integer</text>
<text text-anchor="start" x="8" y="-68.3" font-family="Times,serif" font-size="14.00">summary_id :integer</text>
<text text-anchor="start" x="8" y="-53.3" font-family="Times,serif" font-size="14.00">user_id :integer</text>
<text text-anchor="start" x="8" y="-38.3" font-family="Times,serif" font-size="14.00">content :jsonb</text>
<text text-anchor="start" x="8" y="-23.3" font-family="Times,serif" font-size="14.00">created_at :timestamp without time zone</text>
<text text-anchor="start" x="8" y="-8.3" font-family="Times,serif" font-size="14.00">updated_at :timestamp without time zone</text>
</g>
<!-- User -->
<g id="node4" class="node"><title>User</title>
<path fill="none" stroke="black" d="M194.5,-346.5C194.5,-346.5 493.5,-346.5 493.5,-346.5 499.5,-346.5 505.5,-352.5 505.5,-358.5 505.5,-358.5 505.5,-695.5 505.5,-695.5 505.5,-701.5 499.5,-707.5 493.5,-707.5 493.5,-707.5 194.5,-707.5 194.5,-707.5 188.5,-707.5 182.5,-701.5 182.5,-695.5 182.5,-695.5 182.5,-358.5 182.5,-358.5 182.5,-352.5 188.5,-346.5 194.5,-346.5"/>
<text text-anchor="middle" x="344" y="-692.3" font-family="Times,serif" font-size="14.00">User</text>
<polyline fill="none" stroke="black" points="182.5,-684.5 505.5,-684.5 "/>
<text text-anchor="start" x="190.5" y="-669.3" font-family="Times,serif" font-size="14.00">id :integer</text>
<text text-anchor="start" x="190.5" y="-654.3" font-family="Times,serif" font-size="14.00">first_name :character varying</text>
<text text-anchor="start" x="190.5" y="-639.3" font-family="Times,serif" font-size="14.00">last_name :character varying</text>
<text text-anchor="start" x="190.5" y="-624.3" font-family="Times,serif" font-size="14.00">email :character varying</text>
<text text-anchor="start" x="190.5" y="-609.3" font-family="Times,serif" font-size="14.00">profile_pic :character varying</text>
<text text-anchor="start" x="190.5" y="-594.3" font-family="Times,serif" font-size="14.00">sender_id :character varying</text>
<text text-anchor="start" x="190.5" y="-579.3" font-family="Times,serif" font-size="14.00">fb_token :character varying</text>
<text text-anchor="start" x="190.5" y="-564.3" font-family="Times,serif" font-size="14.00">fb_id :character varying</text>
<text text-anchor="start" x="190.5" y="-549.3" font-family="Times,serif" font-size="14.00">fb_url :character varying</text>
<text text-anchor="start" x="190.5" y="-534.3" font-family="Times,serif" font-size="14.00">selected_page :character varying</text>
<text text-anchor="start" x="190.5" y="-519.3" font-family="Times,serif" font-size="14.00">account_status :character varying</text>
<text text-anchor="start" x="190.5" y="-504.3" font-family="Times,serif" font-size="14.00">summary_count :integer</text>
<text text-anchor="start" x="190.5" y="-489.3" font-family="Times,serif" font-size="14.00">summary_used :integer</text>
<text text-anchor="start" x="190.5" y="-474.3" font-family="Times,serif" font-size="14.00">last_activity :timestamp without time zone</text>
<text text-anchor="start" x="190.5" y="-459.3" font-family="Times,serif" font-size="14.00">gender :character varying</text>
<text text-anchor="start" x="190.5" y="-444.3" font-family="Times,serif" font-size="14.00">age :integer</text>
<text text-anchor="start" x="190.5" y="-429.3" font-family="Times,serif" font-size="14.00">location :character varying</text>
<text text-anchor="start" x="190.5" y="-414.3" font-family="Times,serif" font-size="14.00">frequency :integer</text>
<text text-anchor="start" x="190.5" y="-399.3" font-family="Times,serif" font-size="14.00">sessions :character varying</text>
<text text-anchor="start" x="190.5" y="-384.3" font-family="Times,serif" font-size="14.00">category :character varying</text>
<text text-anchor="start" x="190.5" y="-369.3" font-family="Times,serif" font-size="14.00">created_at :timestamp without time zone</text>
<text text-anchor="start" x="190.5" y="-354.3" font-family="Times,serif" font-size="14.00">updated_at :timestamp without time zone</text>
</g>
<!-- User&#45;&gt;Comment -->
<g id="edge3" class="edge"><title>User&#45;&gt;Comment</title>
<path fill="none" stroke="#8d51cc" d="M174.54,-422.038C138.016,-390.877 104.308,-353.273 84,-310 55.2996,-248.844 62.2145,-221.946 84,-158 87.2319,-148.513 91.8224,-139.234 97.1541,-130.413"/>
<polygon fill="#8d51cc" stroke="#8d51cc" points="174.702,-422.173 179.486,-432.041 178.537,-425.381 182.373,-428.589 182.373,-428.589 182.373,-428.589 178.537,-425.381 185.26,-425.137 174.702,-422.173 174.702,-422.173"/>
<polygon fill="#8d51cc" stroke="#8d51cc" points="97.3096,-130.171 106.497,-124.185 100.01,-125.963 102.71,-121.754 102.71,-121.754 102.71,-121.754 100.01,-125.963 98.9227,-119.324 97.3096,-130.171 97.3096,-130.171"/>
</g>
<!-- Role -->
<g id="node7" class="node"><title>Role</title>
<path fill="none" stroke="black" d="M477,-173.5C477,-173.5 769,-173.5 769,-173.5 775,-173.5 781,-179.5 781,-185.5 781,-185.5 781,-282.5 781,-282.5 781,-288.5 775,-294.5 769,-294.5 769,-294.5 477,-294.5 477,-294.5 471,-294.5 465,-288.5 465,-282.5 465,-282.5 465,-185.5 465,-185.5 465,-179.5 471,-173.5 477,-173.5"/>
<text text-anchor="middle" x="623" y="-279.3" font-family="Times,serif" font-size="14.00">Role</text>
<polyline fill="none" stroke="black" points="465,-271.5 781,-271.5 "/>
<text text-anchor="start" x="473" y="-256.3" font-family="Times,serif" font-size="14.00">id :integer</text>
<text text-anchor="start" x="473" y="-241.3" font-family="Times,serif" font-size="14.00">name :character varying</text>
<text text-anchor="start" x="473" y="-226.3" font-family="Times,serif" font-size="14.00">resource_id :integer</text>
<text text-anchor="start" x="473" y="-211.3" font-family="Times,serif" font-size="14.00">resource_type :character varying</text>
<text text-anchor="start" x="473" y="-196.3" font-family="Times,serif" font-size="14.00">created_at :timestamp without time zone</text>
<text text-anchor="start" x="473" y="-181.3" font-family="Times,serif" font-size="14.00">updated_at :timestamp without time zone</text>
</g>
<!-- User&#45;&gt;Role -->
<g id="edge4" class="edge"><title>User&#45;&gt;Role</title>
<path fill="none" stroke="#c925bb" d="M512.883,-349.853C528.97,-333.074 544.512,-316.864 558.598,-302.172"/>
<polygon fill="#c925bb" stroke="#c925bb" points="512.812,-349.927 502.643,-354.031 509.352,-353.536 505.892,-357.145 505.892,-357.145 505.892,-357.145 509.352,-353.536 509.14,-360.26 512.812,-349.927 512.812,-349.927"/>
<polygon fill="#c925bb" stroke="#c925bb" points="558.905,-301.851 569.074,-297.747 562.366,-298.242 565.826,-294.633 565.826,-294.633 565.826,-294.633 562.366,-298.242 562.578,-291.519 558.905,-301.851 558.905,-301.851"/>
</g>
<!-- Summary -->
<g id="node8" class="node"><title>Summary</title>
<path fill="none" stroke="black" d="M105,-173.5C105,-173.5 397,-173.5 397,-173.5 403,-173.5 409,-179.5 409,-185.5 409,-185.5 409,-282.5 409,-282.5 409,-288.5 403,-294.5 397,-294.5 397,-294.5 105,-294.5 105,-294.5 99,-294.5 93,-288.5 93,-282.5 93,-282.5 93,-185.5 93,-185.5 93,-179.5 99,-173.5 105,-173.5"/>
<text text-anchor="middle" x="251" y="-279.3" font-family="Times,serif" font-size="14.00">Summary</text>
<polyline fill="none" stroke="black" points="93,-271.5 409,-271.5 "/>
<text text-anchor="start" x="101" y="-256.3" font-family="Times,serif" font-size="14.00">id :integer</text>
<text text-anchor="start" x="101" y="-241.3" font-family="Times,serif" font-size="14.00">user_id :integer</text>
<text text-anchor="start" x="101" y="-226.3" font-family="Times,serif" font-size="14.00">story_id :integer</text>
<text text-anchor="start" x="101" y="-211.3" font-family="Times,serif" font-size="14.00">content :jsonb</text>
<text text-anchor="start" x="101" y="-196.3" font-family="Times,serif" font-size="14.00">created_at :timestamp without time zone</text>
<text text-anchor="start" x="101" y="-181.3" font-family="Times,serif" font-size="14.00">updated_at :timestamp without time zone</text>
</g>
<!-- User&#45;&gt;Summary -->
<g id="edge2" class="edge"><title>User&#45;&gt;Summary</title>
<path fill="none" stroke="#a0c787" d="M283.409,-336.41C279.813,-325.155 276.34,-314.289 273.089,-304.118"/>
<polygon fill="#a0c787" stroke="#a0c787" points="283.513,-336.735 282.271,-347.63 285.035,-341.498 286.557,-346.26 286.557,-346.26 286.557,-346.26 285.035,-341.498 290.844,-344.89 283.513,-336.735 283.513,-336.735"/>
<polygon fill="#a0c787" stroke="#a0c787" points="273.088,-304.114 274.33,-293.219 271.566,-299.352 270.044,-294.589 270.044,-294.589 270.044,-294.589 271.566,-299.352 265.757,-295.959 273.088,-304.114 273.088,-304.114"/>
</g>
<!-- Story -->
<g id="node11" class="node"><title>Story</title>
<ellipse fill="none" stroke="black" cx="871" cy="-61" rx="35.6194" ry="18"/>
<text text-anchor="middle" x="871" y="-57.3" font-family="Times,serif" font-size="14.00">Story</text>
</g>
<!-- User&#45;&gt;Story -->
<g id="edge1" class="edge"><title>User&#45;&gt;Story</title>
<path fill="none" stroke="#37ecad" d="M408.294,-338.55C411.303,-328.916 414.223,-319.357 417,-310 436.846,-243.139 406.099,-206.725 456,-158 508.71,-106.532 730.749,-77.0277 826.617,-66.4747"/>
<ellipse fill="none" stroke="#37ecad" cx="407.062" cy="-342.474" rx="4.00001" ry="4.00001"/>
<polygon fill="#37ecad" stroke="#37ecad" points="826.638,-66.4725 837.064,-69.8703 831.609,-65.9345 836.58,-65.3965 836.58,-65.3965 836.58,-65.3965 831.609,-65.9345 836.096,-60.9226 826.638,-66.4725 826.638,-66.4725"/>
</g>
<!-- RssFeed -->
<g id="node5" class="node"><title>RssFeed</title>
<path fill="none" stroke="black" d="M811,-173.5C811,-173.5 1103,-173.5 1103,-173.5 1109,-173.5 1115,-179.5 1115,-185.5 1115,-185.5 1115,-282.5 1115,-282.5 1115,-288.5 1109,-294.5 1103,-294.5 1103,-294.5 811,-294.5 811,-294.5 805,-294.5 799,-288.5 799,-282.5 799,-282.5 799,-185.5 799,-185.5 799,-179.5 805,-173.5 811,-173.5"/>
<text text-anchor="middle" x="957" y="-279.3" font-family="Times,serif" font-size="14.00">RssFeed</text>
<polyline fill="none" stroke="black" points="799,-271.5 1115,-271.5 "/>
<text text-anchor="start" x="807" y="-256.3" font-family="Times,serif" font-size="14.00">id :integer</text>
<text text-anchor="start" x="807" y="-241.3" font-family="Times,serif" font-size="14.00">page_id :integer</text>
<text text-anchor="start" x="807" y="-226.3" font-family="Times,serif" font-size="14.00">name :character varying</text>
<text text-anchor="start" x="807" y="-211.3" font-family="Times,serif" font-size="14.00">url :character varying</text>
<text text-anchor="start" x="807" y="-196.3" font-family="Times,serif" font-size="14.00">created_at :timestamp without time zone</text>
<text text-anchor="start" x="807" y="-181.3" font-family="Times,serif" font-size="14.00">updated_at :timestamp without time zone</text>
</g>
<!-- Brand -->
<g id="node6" class="node"><title>Brand</title>
<path fill="none" stroke="black" d="M811,-805C811,-805 1103,-805 1103,-805 1109,-805 1115,-811 1115,-817 1115,-817 1115,-899 1115,-899 1115,-905 1109,-911 1103,-911 1103,-911 811,-911 811,-911 805,-911 799,-905 799,-899 799,-899 799,-817 799,-817 799,-811 805,-805 811,-805"/>
<text text-anchor="middle" x="957" y="-895.8" font-family="Times,serif" font-size="14.00">Brand</text>
<polyline fill="none" stroke="black" points="799,-888 1115,-888 "/>
<text text-anchor="start" x="807" y="-872.8" font-family="Times,serif" font-size="14.00">id :integer</text>
<text text-anchor="start" x="807" y="-857.8" font-family="Times,serif" font-size="14.00">name :character varying</text>
<text text-anchor="start" x="807" y="-842.8" font-family="Times,serif" font-size="14.00">logo :character varying</text>
<text text-anchor="start" x="807" y="-827.8" font-family="Times,serif" font-size="14.00">created_at :timestamp without time zone</text>
<text text-anchor="start" x="807" y="-812.8" font-family="Times,serif" font-size="14.00">updated_at :timestamp without time zone</text>
</g>
<!-- Page -->
<g id="node9" class="node"><title>Page</title>
<path fill="none" stroke="black" d="M811,-444C811,-444 1103,-444 1103,-444 1109,-444 1115,-450 1115,-456 1115,-456 1115,-598 1115,-598 1115,-604 1109,-610 1103,-610 1103,-610 811,-610 811,-610 805,-610 799,-604 799,-598 799,-598 799,-456 799,-456 799,-450 805,-444 811,-444"/>
<text text-anchor="middle" x="957" y="-594.8" font-family="Times,serif" font-size="14.00">Page</text>
<polyline fill="none" stroke="black" points="799,-587 1115,-587 "/>
<text text-anchor="start" x="807" y="-571.8" font-family="Times,serif" font-size="14.00">id :integer</text>
<text text-anchor="start" x="807" y="-556.8" font-family="Times,serif" font-size="14.00">brand_id :integer</text>
<text text-anchor="start" x="807" y="-541.8" font-family="Times,serif" font-size="14.00">page_name :character varying</text>
<text text-anchor="start" x="807" y="-526.8" font-family="Times,serif" font-size="14.00">page_id :character varying</text>
<text text-anchor="start" x="807" y="-511.8" font-family="Times,serif" font-size="14.00">page_token :character varying</text>
<text text-anchor="start" x="807" y="-496.8" font-family="Times,serif" font-size="14.00">page_url :character varying</text>
<text text-anchor="start" x="807" y="-481.8" font-family="Times,serif" font-size="14.00">welcome_message :jsonb</text>
<text text-anchor="start" x="807" y="-466.8" font-family="Times,serif" font-size="14.00">created_at :timestamp without time zone</text>
<text text-anchor="start" x="807" y="-451.8" font-family="Times,serif" font-size="14.00">updated_at :timestamp without time zone</text>
</g>
<!-- Brand&#45;&gt;Page -->
<g id="edge5" class="edge"><title>Brand&#45;&gt;Page</title>
<path fill="none" stroke="#4435a1" d="M957,-796.673C957,-747.252 957,-676.515 957,-620.028"/>
<ellipse fill="none" stroke="#4435a1" cx="957" cy="-800.869" rx="4" ry="4"/>
<polygon fill="#4435a1" stroke="#4435a1" points="957,-620.015 961.5,-610.015 957,-615.015 957,-610.015 957,-610.015 957,-610.015 957,-615.015 952.5,-610.015 957,-620.015 957,-620.015"/>
</g>
<!-- Summary&#45;&gt;Comment -->
<g id="edge6" class="edge"><title>Summary&#45;&gt;Comment</title>
<path fill="none" stroke="#7d8cc7" d="M214.608,-166.086C208.273,-154.438 201.676,-142.307 195.317,-130.614"/>
<ellipse fill="none" stroke="#7d8cc7" cx="216.562" cy="-169.679" rx="4.00002" ry="4.00002"/>
<polygon fill="#7d8cc7" stroke="#7d8cc7" points="195.286,-130.559 194.462,-119.624 192.897,-126.166 190.509,-121.774 190.509,-121.774 190.509,-121.774 192.897,-126.166 186.555,-123.924 195.286,-130.559 195.286,-130.559"/>
</g>
<!-- Page&#45;&gt;RssFeed -->
<g id="edge8" class="edge"><title>Page&#45;&gt;RssFeed</title>
<path fill="none" stroke="#0380d0" d="M957,-435.622C957,-393.472 957,-344.079 957,-304.85"/>
<ellipse fill="none" stroke="#0380d0" cx="957" cy="-439.778" rx="4" ry="4"/>
<polygon fill="#0380d0" stroke="#0380d0" points="957,-304.848 961.5,-294.848 957,-299.848 957,-294.848 957,-294.848 957,-294.848 957,-299.848 952.5,-294.848 957,-304.848 957,-304.848"/>
</g>
<!-- Page&#45;&gt;Role -->
<g id="edge9" class="edge"><title>Page&#45;&gt;Role</title>
<path fill="none" stroke="#1c09c7" d="M856.51,-438.447C805.975,-394.418 745.727,-341.927 699.087,-301.292"/>
<ellipse fill="none" stroke="#1c09c7" cx="859.612" cy="-441.15" rx="4.00002" ry="4.00002"/>
<polygon fill="#1c09c7" stroke="#1c09c7" points="698.968,-301.188 694.385,-291.226 695.198,-297.903 691.429,-294.619 691.429,-294.619 691.429,-294.619 695.198,-297.903 688.472,-298.012 698.968,-301.188 698.968,-301.188"/>
</g>
<!-- Newsletter -->
<g id="node10" class="node"><title>Newsletter</title>
<path fill="none" stroke="black" d="M1145,-158.5C1145,-158.5 1465,-158.5 1465,-158.5 1471,-158.5 1477,-164.5 1477,-170.5 1477,-170.5 1477,-297.5 1477,-297.5 1477,-303.5 1471,-309.5 1465,-309.5 1465,-309.5 1145,-309.5 1145,-309.5 1139,-309.5 1133,-303.5 1133,-297.5 1133,-297.5 1133,-170.5 1133,-170.5 1133,-164.5 1139,-158.5 1145,-158.5"/>
<text text-anchor="middle" x="1305" y="-294.3" font-family="Times,serif" font-size="14.00">Newsletter</text>
<polyline fill="none" stroke="black" points="1133,-286.5 1477,-286.5 "/>
<text text-anchor="start" x="1141" y="-271.3" font-family="Times,serif" font-size="14.00">id :integer</text>
<text text-anchor="start" x="1141" y="-256.3" font-family="Times,serif" font-size="14.00">page_id :integer</text>
<text text-anchor="start" x="1141" y="-241.3" font-family="Times,serif" font-size="14.00">name :character varying</text>
<text text-anchor="start" x="1141" y="-226.3" font-family="Times,serif" font-size="14.00">date :timestamp without time zone</text>
<text text-anchor="start" x="1141" y="-211.3" font-family="Times,serif" font-size="14.00">window_open :timestamp without time zone</text>
<text text-anchor="start" x="1141" y="-196.3" font-family="Times,serif" font-size="14.00">window_closed :timestamp without time zone</text>
<text text-anchor="start" x="1141" y="-181.3" font-family="Times,serif" font-size="14.00">created_at :timestamp without time zone</text>
<text text-anchor="start" x="1141" y="-166.3" font-family="Times,serif" font-size="14.00">updated_at :timestamp without time zone</text>
</g>
<!-- Page&#45;&gt;Newsletter -->
<g id="edge7" class="edge"><title>Page&#45;&gt;Newsletter</title>
<path fill="none" stroke="#874dea" d="M1061.59,-438.544C1108.07,-399.674 1162.46,-354.194 1208.02,-316.095"/>
<ellipse fill="none" stroke="#874dea" cx="1058.4" cy="-441.212" rx="4.00002" ry="4.00002"/>
<polygon fill="#874dea" stroke="#874dea" points="1208.16,-315.975 1218.72,-313.012 1212,-312.767 1215.84,-309.56 1215.84,-309.56 1215.84,-309.56 1212,-312.767 1212.95,-306.108 1208.16,-315.975 1208.16,-315.975"/>
</g>
<!-- Newsletter&#45;&gt;Story -->
<g id="edge10" class="edge"><title>Newsletter&#45;&gt;Story</title>
<path fill="none" stroke="#a8990a" d="M1125.09,-158.829C1124.39,-158.552 1123.69,-158.276 1123,-158 1047.06,-127.896 957.577,-94.2329 908.286,-75.8464"/>
<ellipse fill="none" stroke="#a8990a" cx="1128.9" cy="-160.344" rx="4.00001" ry="4.00001"/>
<polygon fill="#a8990a" stroke="#a8990a" points="908.059,-75.7618 900.259,-68.0532 903.373,-74.0159 898.688,-72.2699 898.688,-72.2699 898.688,-72.2699 903.373,-74.0159 897.117,-76.4867 908.059,-75.7618 908.059,-75.7618"/>
</g>
</g>
</svg>
